<?xml version="1.0" encoding="UTF-8"?>
<svg version="1.1" viewBox="0 0 2048 1638" width="600" height="480" xmlns="http://www.w3.org/2000/svg">
<path transform="translate(0)" d="m0 0h2048v1638h-2048z" fill="#FEFEFE"/>
<path transform="translate(813,305)" d="m0 0h415l36 1v190l-1 1-14 1h-77l-31-2-10-2-10-14-6-9-4-5-7-4-4-1h-30l-97 5-43 3-9 1v9h130v8l-1 1-14 1-115 4-1 9 110 3 20 1 1 1v7l-2 1-108 3h-21l1 9 13 1 86 3 23 1 8 1v8h-131l1 10 77 5 84 4h15l10-3 9-8 11-17 7-6 14-2 34-2h31l34 1 1 1v155l-1 5-21 1h-285l-1 249h-156v-628z"/>
<path transform="translate(867,1026)" d="m0 0h16l15 3 12 5 11 7 8 8 8 13 5 15 2 15-2 21-4 12-7 12-8 9-10 7-12 6-12 3-8 1h-11l-17-3-12-5-11-7-8-8-7-11-5-12-3-14v-18l4-16 8-16 11-12 14-9 16-5z"/>
<path transform="translate(1022,1026)" d="m0 0h16l18 4 14 7 12 11 7 9 6 13 3 13v22l-3 14-8 16-9 10-7 6-16 8-11 3-9 1h-10l-17-3-11-4-12-8-10-10-7-12-5-15-1-6v-22l4-15 7-14 8-10 12-9 11-5 11-3z"/>
<path transform="translate(1123,1028)" d="m0 0h54l15 3 16 8 10 9 6 7 7 14 3 11 1 7v15l-4 17-7 14-8 10-12 9-13 6-8 2-9 1h-52v-132z"/>
<path transform="translate(700,1028)" d="m0 0h86v29h-55v23h51v29h-51v51l-1 1h-30z"/>
<path transform="translate(1234,1028)" d="m0 0h35l19 38 8 17 2 1 2-6 16-32 8-17 1-1h34l-2 5-13 25-12 22-14 26-5 9-1 45-1 1h-29l-1-1-1-46-17-32-12-22-13-24z"/>
<path transform="translate(1023,1057)" d="m0 0h14l10 3 9 6 6 7 4 8 2 10-1 13-4 10-6 8-8 6-13 4h-13l-12-4-8-6-6-8-4-10-1-13 3-12 5-9 9-8 9-4z" fill="#FEFEFE"/>
<path transform="translate(868,1057)" d="m0 0h14l10 3 8 5 5 5 5 8 3 10v12l-3 11-6 9-8 7-10 4-4 1h-13l-13-4-9-7-6-10-3-9v-16l4-11 8-10 8-5z" fill="#FEFEFE"/>
<path transform="translate(1153,1057)" d="m0 0h20l10 3 10 7 6 9 3 10v16l-3 10-6 9-7 6-10 4-5 1h-18z" fill="#FEFEFE"/>
</svg>
